<svg xmlns="http://www.w3.org/2000/svg" xmlns:xlink="http://www.w3.org/1999/xlink" width="64" zoomAndPan="magnify" viewBox="0 0 48 48" height="64" preserveAspectRatio="xMidYMid meet" version="1.0"><defs><clipPath id="88a82132c4"><path d="M 0.488281 0 L 47.507812 0 L 47.507812 47.019531 L 0.488281 47.019531 Z M 0.488281 0 " clip-rule="nonzero"/></clipPath><clipPath id="cfe9e052e9"><path d="M 10.703125 8.234375 L 37.152344 8.234375 L 37.152344 39 L 10.703125 39 Z M 10.703125 8.234375 " clip-rule="nonzero"/></clipPath></defs><g clip-path="url(#88a82132c4)"><path fill="#ffffff" d="M 0.488281 0 L 47.511719 0 L 47.511719 47.019531 L 0.488281 47.019531 Z M 0.488281 0 " fill-opacity="1" fill-rule="nonzero"/><path fill="#2668d9" d="M 0.488281 0 L 47.511719 0 L 47.511719 47.019531 L 0.488281 47.019531 Z M 0.488281 0 " fill-opacity="1" fill-rule="nonzero"/></g><g clip-path="url(#cfe9e052e9)"><path fill="#ffffff" d="M 13.007812 8.234375 L 26.113281 30.675781 L 26.113281 38.785156 L 19.65625 38.785156 L 19.65625 27.664062 L 21.644531 31.105469 L 21.644531 36.796875 L 24.125 36.796875 L 24.125 31.214844 L 22.605469 28.605469 L 16.148438 17.554688 L 10.707031 8.234375 Z M 28.890625 8.234375 L 23.941406 15.867188 L 19.367188 8.234375 L 17.050781 8.234375 L 18.785156 11.132812 L 23.875 19.621094 L 23.914062 19.5625 L 29.972656 10.222656 L 33.757812 10.222656 L 24.980469 24.332031 L 26.113281 26.296875 L 37.285156 8.234375 Z M 28.890625 8.234375 " fill-opacity="1" fill-rule="nonzero"/></g></svg>